# xmcd
#
# Track frame offsets: 
#        150
#        10939
#        30896
#        47743
#        68372
#        92536
#        110611
#        127358
#        141978
#        160236
#        179450
#
# Disc length: 2734 seconds
#
# Revision: 3
# Processed by: cddbd v1.5.2PL0 Copyright (c) Steve Scherf et al.
# Submitted via: ExactAudioCopyFreeDBPlugin 1.0
#
DISCID=8e0aac0b
DTITLE=Monster Truck - Sittin' Heavy
DYEAR=2016
DGENRE=Rock
TTITLE0=Why Are You Not Rocking?
TTITLE1=Don't Tell Me How To Live
TTITLE2=She's A Witch
TTITLE3=For The People ( Feat. Ian Thornley)
TTITLE4=Black Forest
TTITLE5=Another Man's Shoes
TTITLE6=Things Get Better
TTITLE7=The Enforcer
TTITLE8=To The Flame
TTITLE9=New Soul
TTITLE10=Enjoy The Time
EXTD=Location:  - UPC: 819873012597 - Catalogue number: M74852 - Label: M
EXTD=ascot Records - ASIN: B0182YM238 - Release Date: 2016 02 19 - Discog
EXTD=s: a2831934,m960279,r8185852 - MUSICBRAINZ_ALBUMID: 3ea48583-2020-
EXTD=46d9-9d2a-dffaceffb3a6 - AMG: mn0002830365,mw0002895811;
EXTT0=
EXTT1=
EXTT2=
EXTT3=
EXTT4=
EXTT5=
EXTT6=
EXTT7=
EXTT8=
EXTT9=
EXTT10=
PLAYORDER=
